<?xml version="1.0" encoding="utf-8"?>
<svg version="1.1" xmlns:xlink="http://www.w3.org/1999/xlink" width="25px" height="25px" xmlns="http://www.w3.org/2000/svg">
  <g transform="matrix(1 0 0 1 -95 -116 )">
    <path d="M 107.5 116  C 114.5 116  120 121.5  120 128.5  C 120 135.5  114.5 141  107.5 141  C 100.5 141  95 135.5  95 128.5  C 95 121.5  100.5 116  107.5 116  Z " fill-rule="nonzero" fill="#000000" stroke="none" />
    <path d="M 107.5 116.5  C 114.22 116.5  119.5 121.78  119.5 128.5  C 119.5 135.22  114.22 140.5  107.5 140.5  C 100.78 140.5  95.5 135.22  95.5 128.5  C 95.5 121.78  100.78 116.5  107.5 116.5  Z " stroke-width="1" stroke="#797979" fill="none" />
  </g>
</svg>