<?xml version="1.0" encoding="utf-8"?>
<svg version="1.1" xmlns:xlink="http://www.w3.org/1999/xlink" width="66px" height="66px" xmlns="http://www.w3.org/2000/svg">
  <g transform="matrix(1 0 0 1 -25 -31 )">
    <path d="M 58 31  C 76.48 31  91 45.52  91 64  C 91 82.48  76.48 97  58 97  C 39.52 97  25 82.48  25 64  C 25 45.52  39.52 31  58 31  Z " fill-rule="nonzero" fill="#ffffff" stroke="none" />
    <path d="M 58 31.5  C 76.2 31.5  90.5 45.8  90.5 64  C 90.5 82.2  76.2 96.5  58 96.5  C 39.8 96.5  25.5 82.2  25.5 64  C 25.5 45.8  39.8 31.5  58 31.5  Z " stroke-width="1" stroke="#797979" fill="none" />
  </g>
</svg>