<?xml version="1.0" encoding="utf-8"?>
<svg version="1.1" xmlns:xlink="http://www.w3.org/1999/xlink" width="40px" height="50px" xmlns="http://www.w3.org/2000/svg">
  <defs>
    <filter x="453px" y="52px" width="40px" height="50px" filterUnits="userSpaceOnUse" id="filter1">
      <feOffset dx="1" dy="1" in="SourceAlpha" result="shadowOffsetInner" />
      <feGaussianBlur stdDeviation="2.5" in="shadowOffsetInner" result="shadowGaussian" />
      <feComposite in2="shadowGaussian" operator="atop" in="SourceAlpha" result="shadowComposite" />
      <feColorMatrix type="matrix" values="0 0 0 0 0  0 0 0 0 0  0 0 0 0 0  0 0 0 0.698039215686274 0  " in="shadowComposite" />
    </filter>
    <g id="widget2">
      <path d="M 472 95.0369284683536  C 466.2 85.4073405959099  457.5 79.6295878724437  457.5 70  C 457.5 64.9857142857143  460.4 56.5  472 56.5  C 483.6 56.5  486.5 64.9857142857143  486.5 70  C 486.5 79.6295878724437  477.8 85.4073405959099  472 95.0369284683536  Z " fill-rule="nonzero" fill="#009dd9" stroke="none" />
      <path d="M 472 96  C 466 86  457 80  457 70  C 457 64.8  460 56  472 56  C 484 56  487 64.8  487 70  C 487 80  478 86  472 96  Z M 472 94.0738569367072  C 477.6 84.8146811918198  486 79.2591757448874  486 70  C 486 65.1714285714286  483.2 57  472 57  C 460.8 57  458 65.1714285714286  458 70  C 458 79.2591757448874  466.4 84.8146811918198  472 94.0738569367072  Z " fill-rule="nonzero" fill="#ffffff" stroke="none" />
    </g>
  </defs>
  <g transform="matrix(1 0 0 1 -453 -52 )">
    <use xlink:href="#widget2" filter="url(#filter1)" />
    <use xlink:href="#widget2" />
  </g>
</svg>