<?xml version="1.0" encoding="utf-8"?>
<svg version="1.1" xmlns:xlink="http://www.w3.org/1999/xlink" width="35px" height="35px" xmlns="http://www.w3.org/2000/svg">
  <g transform="matrix(1 0 0 1 -460 -234 )">
    <path d="M 477.5 234  C 487.3 234  495 241.7  495 251.5  C 495 261.3  487.3 269  477.5 269  C 467.7 269  460 261.3  460 251.5  C 460 241.7  467.7 234  477.5 234  Z " fill-rule="nonzero" fill="#ffffff" stroke="none" />
    <path d="M 477.5 234.5  C 487.02 234.5  494.5 241.98  494.5 251.5  C 494.5 261.02  487.02 268.5  477.5 268.5  C 467.98 268.5  460.5 261.02  460.5 251.5  C 460.5 241.98  467.98 234.5  477.5 234.5  Z " stroke-width="1" stroke="#797979" fill="none" />
  </g>
</svg>