<?xml version="1.0" encoding="utf-8"?>
<svg version="1.1" xmlns:xlink="http://www.w3.org/1999/xlink" width="377px" height="152px" xmlns="http://www.w3.org/2000/svg">
  <g>
    <path d="M 0 0  L 377 0  L 377 152  L 0 152  L 0 0  " fill-rule="nonzero" fill="#cccccc" stroke="none" />
    <path d="M 11 11  L 366 11  L 366 141  L 11 141  L 11 11  " fill-rule="nonzero" fill="#ffffff" stroke="none" />
    <path d="M 207.44 45.6  C 201.056 45.6  196.04 40.584  196.04 34.2  C 196.04 27.816  201.056 22.8  207.44 22.8  C 213.824 22.8  218.84 27.816  218.84 34.2  C 218.84 40.584  213.824 45.6  207.44 45.6  " fill-rule="nonzero" fill="#cccccc" stroke="none" />
    <path d="M 15 137  L 15 69.9  L 101.75 39.4  L 223.2 107.48700265252  L 292.6 57.7  L 362 107.48700265252  L 362 137  L 15 137  " fill-rule="nonzero" fill="#169bd5" stroke="none" />
  </g>
</svg>