<?xml version="1.0" encoding="utf-8"?>
<svg version="1.1" xmlns:xlink="http://www.w3.org/1999/xlink" width="42px" height="42px" xmlns="http://www.w3.org/2000/svg">
  <g transform="matrix(1 0 0 1 -26 -90 )">
    <path d="M 47 90  C 58.76 90  68 99.24  68 111  C 68 122.76  58.76 132  47 132  C 35.24 132  26 122.76  26 111  C 26 99.24  35.24 90  47 90  Z " fill-rule="nonzero" fill="#ffffff" stroke="none" />
    <path d="M 47 90.5  C 58.48 90.5  67.5 99.52  67.5 111  C 67.5 122.48  58.48 131.5  47 131.5  C 35.52 131.5  26.5 122.48  26.5 111  C 26.5 99.52  35.52 90.5  47 90.5  Z " stroke-width="1" stroke="#797979" fill="none" />
  </g>
</svg>