<?xml version="1.0" encoding="utf-8"?>
<svg version="1.1" xmlns:xlink="http://www.w3.org/1999/xlink" width="40px" height="40px" xmlns="http://www.w3.org/2000/svg">
  <g transform="matrix(1 0 0 1 -14 -105 )">
    <path d="M 34 105  C 45.2 105  54 113.8  54 125  C 54 136.2  45.2 145  34 145  C 22.8 145  14 136.2  14 125  C 14 113.8  22.8 105  34 105  Z " fill-rule="nonzero" fill="#ffffff" stroke="none" />
    <path d="M 34 105.5  C 44.92 105.5  53.5 114.08  53.5 125  C 53.5 135.92  44.92 144.5  34 144.5  C 23.08 144.5  14.5 135.92  14.5 125  C 14.5 114.08  23.08 105.5  34 105.5  Z " stroke-width="1" stroke="#797979" fill="none" />
  </g>
</svg>